<svg id="Diverging-4" xmlns="http://www.w3.org/2000/svg" width="56" height="56" viewBox="0 0 56 56">
  <path id="Path_3693" data-name="Path 3693" d="M47.2,128v23.126a2.77,2.77,0,0,1,0,4.147v1.121a4.664,4.664,0,0,1,2.8,4.273v.933h.394a4.66,4.66,0,0,1,8.545,0h3.194V128ZM22,153.2a2.782,2.782,0,0,1,.933-2.073V128H8v33.6h3.194a4.66,4.66,0,0,1,8.545,0h.394v-.933a4.664,4.664,0,0,1,2.8-4.273v-1.121A2.783,2.783,0,0,1,22,153.2Z" transform="translate(-7.067 -113.067)" fill="#dff9ff"/>
  <path id="Path_3694" data-name="Path 3694" d="M136,8V45.126A2.8,2.8,0,1,1,137.867,50a4.667,4.667,0,0,1,4.667,4.667,5.6,5.6,0,1,1,11.2,0A4.667,4.667,0,0,1,158.4,50a2.8,2.8,0,1,1,1.867-4.873V8Z" transform="translate(-120.133 -7.067)" fill="#dff9ff"/>
  <ellipse id="Ellipse_18" data-name="Ellipse 18" cx="3" cy="4" rx="3" ry="4" transform="translate(25 34)" fill="#9feaff"/>
  <circle id="Ellipse_19" data-name="Ellipse 19" cx="2.5" cy="2.5" r="2.5" transform="translate(6 41)" fill="#dff9ff"/>
  <ellipse id="Ellipse_20" data-name="Ellipse 20" cx="2.5" cy="3" rx="2.5" ry="3" transform="translate(45 41)" fill="#dff9ff"/>
  <path id="Path_3695" data-name="Path 3695" d="M197.6,360a5.6,5.6,0,0,1,5.6,5.6v7.466H192V365.6A5.6,5.6,0,0,1,197.6,360Z" transform="translate(-169.6 -318)" fill="#9feaff"/>
  <ellipse id="Ellipse_21" data-name="Ellipse 21" cx="3" cy="4.5" rx="3" ry="4.5" transform="translate(14 36)" fill="#dff9ff"/>
  <ellipse id="Ellipse_22" data-name="Ellipse 22" cx="3" cy="4.5" rx="3" ry="4.5" transform="translate(36 36)" fill="#dff9ff"/>
  <path id="Path_3698" data-name="Path 3698" d="M192,40h11.2v7.467H192Z" transform="translate(-169.6 -35.333)" fill="#9feaff"/>
  <path id="Path_3699" data-name="Path 3699" d="M168,131.733h1.867V133.6H168Zm0,3.733h1.867v1.867H168Zm0,3.733h1.867v1.867H168Zm0,3.733h1.867V144.8H168Zm3.733-11.2H173.6V133.6h-1.867Zm0,3.733H173.6v1.867h-1.867Zm0,3.733H173.6v1.867h-1.867Zm0,3.733H173.6V144.8h-1.867Zm3.733-11.2h1.867V133.6h-1.867Zm0,3.733h1.867v1.867h-1.867Zm0,3.733h1.867v1.867h-1.867Zm0,3.733h1.867V144.8h-1.867Zm3.733-11.2h1.867V133.6H179.2ZM171.733,128H173.6v1.867h-1.867Zm3.733,0h1.867v1.867h-1.867Zm3.733,0h1.867v1.867H179.2Zm0,7.467h1.867v1.867H179.2Zm0,3.733h1.867v1.867H179.2Zm0,3.733h1.867V144.8H179.2Zm3.733-11.2H184.8V133.6h-1.867Zm0,3.733H184.8v1.867h-1.867Zm0,3.733H184.8v1.867h-1.867Zm0,3.733H184.8V144.8h-1.867Z" transform="translate(-148.4 -113.067)" fill="#00303e"/>
  <path id="Path_3700" data-name="Path 3700" d="M55.066,14h-14V.933A.933.933,0,0,0,40.134,0H15.867a.933.933,0,0,0-.933.932V14h-14A.933.933,0,0,0,0,14.932v33.6a.933.933,0,0,0,.932.933H2.884A5.6,5.6,0,0,0,2.8,50.4v4.667A.933.933,0,0,0,3.732,56H52.266a.933.933,0,0,0,.933-.932V50.4a5.588,5.588,0,0,0-.084-.933h1.951A.933.933,0,0,0,56,48.534v-33.6A.933.933,0,0,0,55.067,14ZM40.133,40.133a1.867,1.867,0,1,1-1.867-1.867A1.867,1.867,0,0,1,40.133,40.133Zm-22.4-1.867a1.867,1.867,0,1,1-1.867,1.867A1.867,1.867,0,0,1,17.733,38.266Zm-5.6,15.867H4.667V50.4a3.733,3.733,0,1,1,7.467,0Zm-5.6-11.2A1.867,1.867,0,1,1,8.4,44.8,1.867,1.867,0,0,1,6.533,42.933Zm5.741,3.433A5.626,5.626,0,0,0,11.1,45.5a3.733,3.733,0,1,0-5.4,0,5.636,5.636,0,0,0-2.142,2.1H1.867V15.867H14.933V37.69a3.682,3.682,0,0,0,.1,5.007,5.616,5.616,0,0,0-2.758,3.669Zm9.192,7.767H14V47.6a3.733,3.733,0,0,1,7.467,0Zm11.2,0H23.333V47.6a4.667,4.667,0,1,1,9.333,0ZM25.2,38.266a2.8,2.8,0,1,1,2.8,2.8A2.8,2.8,0,0,1,25.2,38.266Zm8.484,6.124a6.574,6.574,0,0,0-2.678-2.585,4.667,4.667,0,1,0-6.013,0,6.573,6.573,0,0,0-2.678,2.585A5.637,5.637,0,0,0,20.434,42.7,3.707,3.707,0,0,0,16.8,36.532V1.867H39.2V36.532A3.717,3.717,0,0,0,35.566,42.7,5.637,5.637,0,0,0,33.684,44.391ZM42,50.4v3.733H34.533V47.6A3.733,3.733,0,0,1,42,47.6Zm9.333,3.733H43.866V50.4a3.733,3.733,0,1,1,7.467,0Zm-5.6-11.2A1.867,1.867,0,1,1,47.6,44.8,1.867,1.867,0,0,1,45.733,42.933Zm8.4,4.667H52.442A5.635,5.635,0,0,0,50.3,45.5a3.733,3.733,0,1,0-5.4,0,5.623,5.623,0,0,0-1.174.869A5.615,5.615,0,0,0,40.967,42.7a3.682,3.682,0,0,0,.1-5.007V15.867H54.133Z" transform="translate(0)" fill="#00303e"/>
  <path id="Path_3701" data-name="Path 3701" d="M79.2,49.733h1.867V64.666H79.2Zm5.6,0h1.867V64.666H84.8Zm-44.8,0h1.867V64.666H40Zm5.6,0h1.867V64.666H45.6Zm12.133-8.4h11.2a.933.933,0,0,0,.933-.932V32.933A.933.933,0,0,0,68.934,32h-11.2a.933.933,0,0,0-.933.932V40.4a.933.933,0,0,0,.932.933Zm.933-7.467H68v5.6H58.667Z" transform="translate(-35.333 -28.267)" fill="#00303e"/>
</svg>
