<svg xmlns="http://www.w3.org/2000/svg" width="58.144" height="50.818" viewBox="0 0 58.144 50.818">
  <g id="Diverging-1" transform="translate(1 1)">
    <path id="Path_234" data-name="Path 234" d="M2.923,28.939l1.8,11.717a4.883,4.883,0,0,0,4.824,4.149h38a4.883,4.883,0,0,0,4.827-4.149l1.8-11.717a2.44,2.44,0,0,0,2.44-2.44V10.633A4.883,4.883,0,0,0,51.739,5.75H5.361A4.883,4.883,0,0,0,.478,10.633V26.5a2.44,2.44,0,0,0,2.44,2.44Z" transform="translate(-0.478 4.013)" fill="#9feaff"/>
    <path id="Path_235" data-name="Path 235" d="M51.74,5.75H5.362A4.883,4.883,0,0,0,.479,10.633v8.543a4.883,4.883,0,0,1,4.883-4.883H51.74a4.883,4.883,0,0,1,4.883,4.883V10.633A4.883,4.883,0,0,0,51.74,5.75Z" transform="translate(-0.476 4.013)" fill="#dff9ff"/>
    <path id="Path_236" data-name="Path 236" d="M2.923,28.939l1.8,11.717a4.883,4.883,0,0,0,4.824,4.149h38a4.883,4.883,0,0,0,4.827-4.149l1.8-11.717a2.44,2.44,0,0,0,2.44-2.44V10.633A4.883,4.883,0,0,0,51.739,5.75H5.361A4.883,4.883,0,0,0,.478,10.633V26.5a2.44,2.44,0,0,0,2.44,2.44Z" transform="translate(-0.478 4.013)" fill="none" stroke="#00303e" stroke-linecap="round" stroke-linejoin="round" stroke-width="2"/>
    <path id="Path_237" data-name="Path 237" d="M29.157,11.68H7.188V9.24a7.323,7.323,0,0,1,7.323-7.323h7.323A7.323,7.323,0,0,1,29.157,9.24Z" transform="translate(9.903 -1.917)" fill="none" stroke="#00303e" stroke-linecap="round" stroke-linejoin="round" stroke-width="2"/>
    <path id="Path_238" data-name="Path 238" d="M1.438,14.854H22.187" transform="translate(1.007 18.098)" fill="none" stroke="#00303e" stroke-linecap="round" stroke-linejoin="round" stroke-width="2"/>
    <path id="Path_239" data-name="Path 239" d="M13.417,14.854H34.166" transform="translate(19.54 18.098)" fill="none" stroke="#00303e" stroke-linecap="round" stroke-linejoin="round" stroke-width="2"/>
    <path id="Path_240" data-name="Path 240" d="M9.584,18.646a6.554,6.554,0,0,0,2.408,5.4,4.058,4.058,0,0,0,4.947,0,6.554,6.554,0,0,0,2.408-5.4,6.554,6.554,0,0,0-2.408-5.4,4.058,4.058,0,0,0-4.947,0,6.554,6.554,0,0,0-2.408,5.4" transform="translate(13.608 14.307)" fill="#dff9ff"/>
    <path id="Path_241" data-name="Path 241" d="M14.483,17.436a4.957,4.957,0,0,1-4.432-3.574A7.371,7.371,0,0,0,9.6,16.389a5.594,5.594,0,0,0,4.883,6.1,5.594,5.594,0,0,0,4.883-6.1,7.372,7.372,0,0,0-.448-2.527,4.957,4.957,0,0,1-4.435,3.574Z" transform="translate(13.592 16.564)" fill="#9feaff"/>
    <path id="Path_242" data-name="Path 242" d="M9.584,18.646a6.554,6.554,0,0,0,2.408,5.4,4.058,4.058,0,0,0,4.947,0,6.554,6.554,0,0,0,2.408-5.4,6.554,6.554,0,0,0-2.408-5.4,4.058,4.058,0,0,0-4.947,0,6.554,6.554,0,0,0-2.408,5.4" transform="translate(13.608 14.307)" fill="none" stroke="#00303e" stroke-linecap="round" stroke-linejoin="round" stroke-width="2"/>
  </g>
</svg>