<svg xmlns="http://www.w3.org/2000/svg" width="51.581" height="61" viewBox="0 0 51.581 61">
  <g id="Diverging-2" transform="translate(1 1)">
    <path id="Path_272" data-name="Path 272" d="M8.625,1.917v5.62" transform="translate(8.232 -1.917)" fill="none" stroke="#00303e" stroke-linecap="round" stroke-linejoin="round" stroke-width="2"/>
    <path id="Path_273" data-name="Path 273" d="M13.284,2.875H7.667" transform="translate(6.382 -0.066)" fill="none" stroke="#00303e" stroke-linecap="round" stroke-linejoin="round" stroke-width="2"/>
    <path id="Path_274" data-name="Path 274" d="M15.333,20.125v5.62" transform="translate(21.19 33.255)" fill="none" stroke="#00303e" stroke-linecap="round" stroke-linejoin="round" stroke-width="2"/>
    <path id="Path_275" data-name="Path 275" d="M20,21.083h-5.62" transform="translate(19.339 35.106)" fill="none" stroke="#00303e" stroke-linecap="round" stroke-linejoin="round" stroke-width="2"/>
    <path id="Path_282" data-name="Path 282" d="M14.259,25.66C11.471,28.45,2.875,28.626,2.875,28.626S3.52,20.5,6.308,17.715s5.693-.281,6.954.991,3.785,4.163,1,6.954Z" transform="translate(-2.875 26.158)" fill="#9feaff" stroke="#00303e" stroke-linecap="round" stroke-linejoin="round" stroke-width="2"/>
    <path id="Path_283" data-name="Path 283" d="M18.63,6.815l2.979-2.982" transform="translate(27.559 1.784)" fill="none" stroke="#00303e" stroke-linecap="round" stroke-linejoin="round" stroke-width="2"/>
    <path id="Path_284" data-name="Path 284" d="M23.828,22.092l-9.469,6.435L10.4,24.537,6.437,20.576l6.435-9.469L23.831,22.092Z" transform="translate(4.006 15.835)" fill="#9feaff" stroke="#00303e" stroke-linecap="round" stroke-linejoin="round" stroke-width="2"/>
    <path id="Path_285" data-name="Path 285" d="M34.957,24.4,19.59,34.853,8.631,23.868,19.082,8.5a8.347,8.347,0,0,1,7.924-3.961l10.929.982,1.011,10.929a8.388,8.388,0,0,1-3.99,7.951Z" transform="translate(8.244 3.074)" fill="#dff9ff"/>
    <path id="Path_286" data-name="Path 286" d="M33.818,16.451,32.807,5.524,21.877,4.539A8.346,8.346,0,0,0,13.953,8.5l-2.662,3.917a8.273,8.273,0,0,1,2.982-.281A13.178,13.178,0,0,1,26.21,24.044a8.3,8.3,0,0,1-.281,3l3.893-2.65a8.388,8.388,0,0,0,4-7.939Z" transform="translate(13.382 3.074)" fill="#fff"/>
    <path id="Path_287" data-name="Path 287" d="M34.957,24.4,19.59,34.853,8.631,23.868,19.082,8.5a8.347,8.347,0,0,1,7.924-3.961l10.929.982,1.011,10.929a8.388,8.388,0,0,1-3.99,7.951Z" transform="translate(8.244 3.074)" fill="none" stroke="#00303e" stroke-linecap="round" stroke-linejoin="round" stroke-width="2"/>
    <path id="Path_288" data-name="Path 288" d="M18.453,12.117l-3.028-1.158a5.62,5.62,0,0,0-5.981,1.275l-5.494,5.5A1.4,1.4,0,0,0,4.666,20.1l7.359,1.472Z" transform="translate(-1.596 14.834)" fill="#9feaff" stroke="#00303e" stroke-linecap="round" stroke-linejoin="round" stroke-width="2"/>
    <path id="Path_289" data-name="Path 289" d="M18.6,14.854l1.158,3.028a5.62,5.62,0,0,1-1.275,5.981l-5.5,5.5a1.4,1.4,0,0,1-2.372-.715L9.144,21.283Z" transform="translate(9.235 23.073)" fill="#9feaff" stroke="#00303e" stroke-linecap="round" stroke-linejoin="round" stroke-width="2"/>
    <path id="Path_290" data-name="Path 290" d="M17.681,15.571a4.216,4.216,0,1,0-4.216-4.216A4.216,4.216,0,0,0,17.681,15.571Z" transform="translate(17.581 8.17)" fill="#9feaff" stroke="#00303e" stroke-linecap="round" stroke-linejoin="round" stroke-width="2"/>
  </g>
</svg>
