<svg xmlns="http://www.w3.org/2000/svg" width="58.144" height="58.145" viewBox="0 0 58.144 58.145">
  <g id="Diverging-3" transform="translate(1 1)">
    <path id="Path_257" data-name="Path 257" d="M2.4,3.354H48.774V52.175H2.4Z" transform="translate(2.487 3.969)" fill="#9feaff"/>
    <path id="Path_258" data-name="Path 258" d="M45.723,3.354H2.4V46.681Z" transform="translate(2.487 3.969)" fill="#dff9ff"/>
    <path id="Path_259" data-name="Path 259" d="M.479,22.521H56.623" transform="translate(-0.479 33.623)" fill="none" stroke="#00303e" stroke-linecap="round" stroke-linejoin="round" stroke-width="2"/>
    <path id="Path_260" data-name="Path 260" d="M2.4,3.354H48.774V52.175H2.4Z" transform="translate(2.487 3.969)" fill="none" stroke="#00303e" stroke-linecap="round" stroke-linejoin="round" stroke-width="2"/>
    <path id="Path_261" data-name="Path 261" d="M.479,3.354H56.623" transform="translate(-0.479 3.969)" fill="none" stroke="#00303e" stroke-linecap="round" stroke-linejoin="round" stroke-width="2"/>
    <path id="Path_262" data-name="Path 262" d="M44.851,7.8V2.919A2.44,2.44,0,0,0,42.41.479H5.8a2.44,2.44,0,0,0-2.44,2.44V7.8Z" transform="translate(3.97 -0.479)" fill="#9feaff" stroke="#00303e" stroke-linecap="round" stroke-linejoin="round" stroke-width="2"/>
    <path id="Path_263" data-name="Path 263" d="M10.063,29.876V21.333a3.663,3.663,0,0,1,7.323,0v8.543Z" transform="translate(14.349 26.268)" fill="#fff" stroke="#00303e" stroke-linecap="round" stroke-linejoin="round" stroke-width="2"/>
    <path id="Path_264" data-name="Path 264" d="M5.271,18.688h7.323" transform="translate(6.935 27.693)" fill="none" stroke="#00303e" stroke-linecap="round" stroke-linejoin="round" stroke-width="2"/>
    <path id="Path_265" data-name="Path 265" d="M14.854,18.688h7.323" transform="translate(21.761 27.693)" fill="none" stroke="#00303e" stroke-linecap="round" stroke-linejoin="round" stroke-width="2"/>
    <path id="Path_266" data-name="Path 266" d="M5.271,14.854h9.763" transform="translate(6.935 21.761)" fill="none" stroke="#00303e" stroke-linecap="round" stroke-linejoin="round" stroke-width="2"/>
    <path id="Path_267" data-name="Path 267" d="M13.9,14.854h9.763" transform="translate(20.279 21.761)" fill="none" stroke="#00303e" stroke-linecap="round" stroke-linejoin="round" stroke-width="2"/>
    <path id="Path_268" data-name="Path 268" d="M5.271,11.021h9.763" transform="translate(6.935 15.831)" fill="none" stroke="#00303e" stroke-linecap="round" stroke-linejoin="round" stroke-width="2"/>
    <path id="Path_269" data-name="Path 269" d="M13.9,11.021h9.763" transform="translate(20.279 15.831)" fill="none" stroke="#00303e" stroke-linecap="round" stroke-linejoin="round" stroke-width="2"/>
    <path id="Path_270" data-name="Path 270" d="M5.271,7.188h9.763" transform="translate(6.935 9.901)" fill="none" stroke="#00303e" stroke-linecap="round" stroke-linejoin="round" stroke-width="2"/>
    <path id="Path_271" data-name="Path 271" d="M13.9,7.188h9.763" transform="translate(20.279 9.901)" fill="none" stroke="#00303e" stroke-linecap="round" stroke-linejoin="round" stroke-width="2"/>
  </g>
</svg>
