<svg id="inc-5" xmlns="http://www.w3.org/2000/svg" width="48.274" height="48.433" viewBox="0 0 48.274 48.433">
  <g id="Group_1418" data-name="Group 1418" transform="translate(0 0)">
    <g id="Group_1416" data-name="Group 1416" transform="translate(0 7.981)">
      <path id="Path_1997" data-name="Path 1997" d="M396.708,84.985c1.49-.113,1.006,1.94,1.425,3a33.21,33.21,0,0,1,.355,4.258c.314,1.141-.929,3.254.458,3.74,1.51.294,1.157-3.533,1.341-4.515.023-2.661.1-5.394.142-8.029-.2-1.564-1.893-1.222-3.04-1.126-1.088.166-2.708-.016-3.364,1.033C393.712,84.761,395.789,84.681,396.708,84.985Z" transform="translate(-355.824 -82.212)" fill="#933ff4"/>
      <path id="Path_1998" data-name="Path 1998" d="M49.011,118.748a11.73,11.73,0,0,0-3.679-7.367c-.161-1.857-.574-3.73-.882-5.558a.671.671,0,0,0-1.309-.017c-.1.476-.167.954-.225,1.429-.078.953-.208,1.958-.33,2.941a29.622,29.622,0,0,0-8.318-.239c-6.277.794-12.551.473-18.871.472-1.34.219-5.718-.1-8.3.371-.272-3.646-.32-7.3-.34-10.946A87.33,87.33,0,0,1,7.621,86.09c.279.01.938.05,1.228.068,2.652.633,3.282-2.641.847-2.865-1.072.052-2.175-.005-3.254.148a1.463,1.463,0,0,0-1.277,1.224v-.014c-1.067,8.9.181,17.876-.116,26.791a5.94,5.94,0,0,0-1.845,2.7c-4.866,6.253-1.987,10.566,5.712,9.265,5.376-.354,10.757-.882,16.151-.882,5.8-.036,11.644.081,17.441.365.607.025,1.882.093,2.492.132h.047C46.568,123.561,49.6,121.388,49.011,118.748Zm-2.875,2.194a3.046,3.046,0,0,1-1.139.436c-4.819-.284-9.689-.541-14.565-.724a.67.67,0,0,0-.4-1.186c-3.438,0-6.775-.978-10.235-.9a1.411,1.411,0,0,0-1.175,1.812q-3.038-.021-6.056.02c-9.559.058-11.1,2.4-6.388-7.743a1.237,1.237,0,0,0,.225-.039c1.393.031,3.549-.555,4.353-.381,7.827-.287,15.716.647,23.575.264a45.9,45.9,0,0,1,5.679.212,10.454,10.454,0,0,1,3.372.764c1.607,1.739,4.355,5.148,2.752,7.466Z" transform="translate(-0.812 -83.188)" fill="#933ff4"/>
    </g>
    <g id="Group_1417" data-name="Group 1417" transform="translate(14.932)">
      <path id="Path_1999" data-name="Path 1999" d="M231.229,88.6a1.808,1.808,0,1,0,3.527-.675A1.808,1.808,0,0,0,231.229,88.6Z" transform="translate(-223.786 -78.177)" fill="#e34690"/>
      <path id="Path_2000" data-name="Path 2000" d="M170.52,10.55a.846.846,0,0,1,.246-.835c.543-.528,1.293-.895,1.875-1.527a2.577,2.577,0,0,0-.391-3.622c-1.043-.681-2.249.287-3.336.138a2.86,2.86,0,0,1-2.97-3.073,1.469,1.469,0,0,0-.229-.781A2.454,2.454,0,0,0,163.032.1c-1.81.309-1.768,2.542-1.78,3.86-2.431,2.83-4.575-.758-6.349,1.748-1.2,2.017,1.907,3.133,2.521,4.691.338,1.686-2.033,1.934-2.516,3.338a1.966,1.966,0,0,0,1.286,2.07l-.015,0c1.656.442,2.476-1.342,4-.411,2.107.955,1.647,1.6,2.121,3.566a1.7,1.7,0,0,0,.609.992,1.891,1.891,0,0,0,2.26-.279l-.028.04c.605-.749.474-1.827.621-2.67.447-.994,1.874-1.23,2.747-1.984,3.072.868,3.293,2.1,4.486-1.61-.558-1.135-2.331-1.544-2.477-2.9Zm.58,3.627-2.542-.839c-.632-.236-.973.347-1.466.657a10.681,10.681,0,0,0-2.276,1.411c-.822.6-.754,1.615-.888,2.5a4.813,4.813,0,0,0-.979-2.842,7.06,7.06,0,0,0-3.283-1.864,2.417,2.417,0,0,0-1.269.095,3.188,3.188,0,0,0,1.081-1.679c.558-1.567-.317-2.8-1.3-3.924a5.7,5.7,0,0,0,5.544-2.436,2.394,2.394,0,0,0,.165-.37A5.917,5.917,0,0,0,169.572,7.5a4.067,4.067,0,0,0-1.07,1.361,3.192,3.192,0,0,0-.123,2.232,5.055,5.055,0,0,0,2.857,2.919q-.071.083-.137.166Z" transform="translate(-154.628 0.001)" fill="#e34690"/>
    </g>
  </g>
</svg>
