<svg id="inc-2" xmlns="http://www.w3.org/2000/svg" width="47.71" height="48.917" viewBox="0 0 47.71 48.917">
  <g id="Group_1407" data-name="Group 1407" transform="translate(0 0)">
    <path id="Path_1988" data-name="Path 1988" d="M165.033,140.851c-.729-4.264-4.1-8.2-8.438-9-6.644-1.329-13.251,4.6-12.673,11.344-.138,8.129,9.4,13.3,16.166,8.812A11.035,11.035,0,0,0,165.033,140.851Zm-2.372.692c-.84.009-2.069,0-3.5-.019.005-.44.01-.88.019-1.316a10.382,10.382,0,0,0-1.171-4.835c.1.051.2.1.3.161A9.553,9.553,0,0,1,162.66,141.543Zm-9.321,8.866c-1.954-1.514-1.879-4.422-1.828-6.858,1.722.093,3.443.21,5.164.335C156.337,146.861,155.617,150.216,153.339,150.409Zm-1.769-8.879a17.645,17.645,0,0,1,.622-5.623,1.76,1.76,0,0,1,2.5-1c2.125.75,2.348,3.4,2.341,5.346-.048.347-.088.773-.13,1.252C155.174,141.493,153.317,141.492,151.57,141.53Zm-.949-6.084a23.183,23.183,0,0,0-.674,6.133,30.767,30.767,0,0,0-4.356.4A8.116,8.116,0,0,1,150.622,135.446Zm-5.065,7.9c1.421.013,2.84.054,4.257.117-.2,2.394-.679,4.74.216,7.115q.053.168.116.325A8.3,8.3,0,0,1,145.556,143.351Zm11.8,7.882c.064-.106.125-.215.181-.328a15.867,15.867,0,0,0,1.562-6.838q1.828.137,3.657.267A8.557,8.557,0,0,1,157.357,151.233Z" transform="translate(-130.522 -118.881)" fill="#933ff4"/>
    <path id="Path_1989" data-name="Path 1989" d="M53.917,23.87c-.468-7.594-8.459-3.142-7.625-7.631.8-1.411,2.743-2.55,2.756-4.445a5.684,5.684,0,0,0-1.1-3.389C42.015.2,36.5,11.3,35.58,6.157c-.213-1.949-.54-4.459-2.607-5.4C30.517-.259,26.783-.57,25.085,1.874c-2.584,4.781.522,8-6.021,3.533-3.062-1.3-6.558.756-7.685,3.718-1.326,2.061-.014,7.424,2.465,7.746-.237,2.525-5.131.9-6.416,3.532C5.25,23.278,6.042,28,9.582,29.369c1.514.778,5.7-.163,3.515,2.749-4.144,4.2-1.637,10.588,4.373,10.4,3.758-.675,5.505-5.119,6.318,1.425.437,4.483,6.334,6.4,9.754,3.818,2.225-1.635,1.881-4.678,2.811-6.91,1.835-.387,3.319,1.637,5.175,1.945,1.546.7,5.431-.173,4.605-2.323a.824.824,0,0,0-1.176-.035c-3.422,2.66-7.577-5.421-10.88-.985-1.489,1.953-.461,5.811-3.323,6.454-5.818,1.315-3.122-6.841-7.509-8.087-2.789-.909-4.391,2.646-6.949,2.336a4.107,4.107,0,0,1-3.206-2.628c-.728-3.031,4.3-5.4,1.89-8.428-1.259-2.01-4.1-.429-5.658-1.986-1.831-1.431-1.706-4.347-.247-6.029,1.259-1.325,3.482-.594,4.931-1.62,1.032-.381,1.575-1.966,1.455-3.175.978-2.452-4.476-3.537-.365-7.848,3.477-3.242,6.783,4.674,10.2.462,1.443-1.889.453-4.888,2.336-6.288a5.642,5.642,0,0,1,4.807.409c1.126,1.193.748,3.186,1.356,4.658,2.284,5.138,6.609-1.185,9.938-.3,1.528.8,3.124,2.133,3.382,3.921.229,2.1-2.824,3.07-2.767,5.285.184,6.489,8.987,1.126,7.644,8.678-1.161,4.531-4.464,2.415-6.909,4.231-1.432,1.347-.478,6.176,1.89,4.755,1.033-1.121-1.3-2.257-.38-3.5,3.84.132,7.565-2.707,7.319-6.879Z" transform="translate(-6.219 0)" fill="#e34690"/>
  </g>
</svg>
