<svg id="inc-3" xmlns="http://www.w3.org/2000/svg" width="48.607" height="47.583" viewBox="0 0 48.607 47.583">
  <g id="Group_1410" data-name="Group 1410" transform="translate(0 0)">
    <path id="Path_1990" data-name="Path 1990" d="M178.457,146.045c.268-1,1.568-2.01,2.327-2.879,3.634-3.465,3.074-5.727-1.417-7.811-4.692-2.5-16.508.427-10.837,7.108,1.038,1.214,2.248,2.1,3.177,3.32.128.537-.477.985-.837,1.43a13.087,13.087,0,0,0-2.849,3.388,3.572,3.572,0,0,0,1.52,4.936,9.507,9.507,0,0,0,4.14.7,36.768,36.768,0,0,0,3.984.206c3.617.107,6.724-3.2,4.287-6.567a19.883,19.883,0,0,0-2.68-2.585c-.342-.339-.793-.729-.837-1.144a.278.278,0,0,1,.023-.1Zm-1.934-.57c-.6,2.482,2.335,3.667,3.656,5.194a2.137,2.137,0,0,1-.857,3.717c-2.371.725-5.054.085-7.484.091-2.889-.248-3.192-2.16-1.138-3.933,5.485-4.187,4.352-5.512.032-9.931-.382-.543-1.091-1.218-.614-1.828,3.127-2.2,7.882-2.217,10.77.42-.768,2.462-3.7,3.5-4.312,6.1Z" transform="translate(-150.807 -121.926)" fill="#e34690"/>
    <g id="Group_1409" data-name="Group 1409">
      <path id="Path_1991" data-name="Path 1991" d="M48.577,19.637C45.271,11.2,36.456,5.821,27.5,6.056a1.351,1.351,0,0,0-1.209-.748C17.052,4.769,9.288,11.256,4.884,18.892c-.548-.385-.889-1.115-.934-2.49a12.469,12.469,0,0,1,.3-3.336.814.814,0,0,0-1.588-.36c-.63,2.823-1.372,6.923,1.6,8.755a6,6,0,0,0,3.154.729c1.162.037,5.723-.734,3.5-2.412a10.222,10.222,0,0,0-3.977-.46,17.432,17.432,0,0,1,1-1.812A20.9,20.9,0,0,1,20.077,8.517a15.846,15.846,0,0,1,6.094-.3,1.348,1.348,0,0,0,1.336-.777c8.135.247,16.027,5.293,18.7,13.123a23.337,23.337,0,0,1,1.366,8.289,1.457,1.457,0,0,0,1.5,1.465c3.148,0,.208-8.97-.493-10.686Z" transform="translate(-1.889 -5.277)" fill="#933ff4"/>
      <path id="Path_1992" data-name="Path 1992" d="M48.51,247.951c-1.069-4.552-5.189-3.909-8.615-2.629a.888.888,0,0,0-.18,1.6,4.347,4.347,0,0,0,1.986.486,8.215,8.215,0,0,0,2.181-.164,22.25,22.25,0,0,1-3.093,4.337,23.661,23.661,0,0,1-3.626,3.235,21.545,21.545,0,0,1-13.581,4.144c-6.857-.9-13.68-4.231-17.572-10.07a18.614,18.614,0,0,1-2.9-7.567,20.573,20.573,0,0,1-.2-4.079A1.456,1.456,0,1,0,0,237.16a22.875,22.875,0,0,0,1.731,9.072c3.588,8.671,12.7,13.749,21.716,14.677a23.761,23.761,0,0,0,14.741-4.666,28.033,28.033,0,0,0,3.932-3.422,28.344,28.344,0,0,0,3.921-5.205,1.717,1.717,0,0,1,.19.2c.732,1.062.4,2.53.165,3.733-.113.57-.246,1.156-.329,1.812a.81.81,0,0,0,1.6.245C47.98,251.691,48.88,249.981,48.51,247.951Z" transform="translate(0 -213.344)" fill="#933ff4"/>
    </g>
  </g>
</svg>
