<svg id="inc-1" xmlns="http://www.w3.org/2000/svg" width="47.892" height="49.704" viewBox="0 0 47.892 49.704">
  <g id="Group_1405" data-name="Group 1405" transform="translate(0 0)">
    <g id="Group_1403" data-name="Group 1403">
      <path id="Path_1981" data-name="Path 1981" d="M48.814,347.838a.656.656,0,0,0-.157,1.3c2.477.293,3.462,2.5,3.316,4.78.353,1.948-2.389,9.471.79,9.137a1.454,1.454,0,0,0,1.326-1.571,32.506,32.506,0,0,1,.055-3.663C54.532,353.908,54,347.833,48.814,347.838Z" transform="translate(-44.373 -314.069)" fill="#933ff4"/>
      <g id="Group_1402" data-name="Group 1402">
        <path id="Path_1982" data-name="Path 1982" d="M15.541,148.5c1.644,2.463,2.091,6.067,4.76,7.874a4.908,4.908,0,0,0,4.238.389.818.818,0,0,0-.226-1.6c-.208,0-.418.008-.622.018-1.957.075-2.834-1.3-3.506-3.139-1.185-3.255-2.852-8.966-7.542-7.019-2.762,1.434-3.149,5.017-3.289,7.765-.1,1.558.246,3.09.042,4.644-.323,3.282.664,7.114,4.148,8.227,3.4,1.165,7.152.567,10.651.341a.819.819,0,0,0-.133-1.631c-3.885.122-11.17,1.61-12.462-3.331a14.072,14.072,0,0,1,.047-4.942,16.052,16.052,0,0,1,.046-3.109C11.772,151.127,13.206,145.2,15.541,148.5Z" transform="translate(-9.333 -130.584)" fill="#e34690"/>
        <path id="Path_1983" data-name="Path 1983" d="M28.451,14.067c2.981-.608,4.418-4.309,3.329-7.009-2.639-5.382-10.05-3.832-9.453,2.526a5.247,5.247,0,0,0,6.124,4.482ZM25.394,6.888c1.9-.72,4.649.554,4.415,2.83-.121,2.777-3.254,3.451-5.033,1.609-1.29-1.229-1.067-3.76.617-4.439Z" transform="translate(-21.035 -3.42)" fill="#e34690"/>
        <path id="Path_1984" data-name="Path 1984" d="M214.264,140.514c-.461-2.968-4.042-6.167-6.77-3.611-1.779,2.21-2.518,5.169-3.991,7.534-1.077,1.4-3.086,1.6-4.749,1.9a4.268,4.268,0,0,1-.777.117c-.01-.4-.008-.813,0-1.241.038-2.528.219-5.536-1.728-7.5a6.557,6.557,0,0,0-3.212-1.557c-2.649-.766-5.986-.545-7.781,1.819a10.606,10.606,0,0,0-1.837,6.3c.132,1.184-.562,3.946,1.362,3.721a1.061,1.061,0,0,0,.8-1.282,12.644,12.644,0,0,1-.321-3.255c.091-4.7,3.188-6.836,7.59-5.138,3.935.983,2.222,5.736,2.241,8.68a1.4,1.4,0,0,0,1.683,1.335,12.752,12.752,0,0,0,4.389.327c4.128-.394,5.435-3.186,6.221-6.82.407-1.1,1.027-3.673,2.249-3.949,2.139-.083,3.634,3.008,2.9,4.837C212.146,144.468,215.038,144.58,214.264,140.514Z" transform="translate(-166.505 -122.576)" fill="#e34690"/>
        <path id="Path_1985" data-name="Path 1985" d="M395.787,9.272A4.782,4.782,0,0,0,402.7,4.687c-.259-4.663-6.689-6.5-9.168-2.459A4.663,4.663,0,0,0,395.787,9.272Zm1.6-6.347c1.583-.22,3.869.652,3.657,2.561-.462,3.633-5.362,3.048-6.022.05A2.706,2.706,0,0,1,397.387,2.924Z" transform="translate(-355.475 0)" fill="#e34690"/>
        <path id="Path_1986" data-name="Path 1986" d="M217.9,11.963A4.736,4.736,0,0,0,212.3,7.7a4.958,4.958,0,0,0-4.312,5.79C209.013,19.716,218.355,17.94,217.9,11.963Zm-8.184-.561c.853-2.807,5.907-2.631,5.831.585-.17,1.986-2.508,2.861-4.278,2.49A2.237,2.237,0,0,1,209.718,11.4Z" transform="translate(-188.625 -6.885)" fill="#e34690"/>
      </g>
    </g>
    <g id="Group_1404" data-name="Group 1404" transform="translate(14.235 23.888)">
      <path id="Path_1987" data-name="Path 1987" d="M189.338,251.742a.85.85,0,0,0-1.548-.317,7.905,7.905,0,0,1-6.374,4.546,42.973,42.973,0,0,1-5.75-.034c-.214-2.169-.453-4.338-.491-6.5-.084-.826.23-1.756-.137-2.522-1.377-.543-3.406-.38-4.87-.542a111.9,111.9,0,0,0-12.945-.187,1.158,1.158,0,0,0-1.035,1.489,10.733,10.733,0,0,1,.391,2.9c.1,6.784-3.7,19.959,6.464,20.775,10.665,2.515,14.118-4.147,12.776-13.778,1.939.113,3.965.455,5.974.451-1.748,3.6-.666,7.75-.709,11.541a1.454,1.454,0,0,0,2.9-.232c-.226-3.409-2.018-8.668-.079-11.48C187.039,257.355,189.712,255.679,189.338,251.742Zm-16.071-2.39c-1.03,8.171,3.737,22.574-9.9,19.38-8.973-.076-3.546-15.177-5.226-20.785a141.334,141.334,0,0,1,15.285.244C173.357,248.576,173.311,248.966,173.266,249.352Z" transform="translate(-155.964 -246.07)" fill="#933ff4"/>
    </g>
  </g>
</svg>