<svg id="inc-4" xmlns="http://www.w3.org/2000/svg" width="49.704" height="46.448" viewBox="0 0 49.704 46.448">
  <g id="Group_1414" data-name="Group 1414" transform="translate(0 0)">
    <g id="Group_1412" data-name="Group 1412" transform="translate(0.446)">
      <path id="Path_1993" data-name="Path 1993" d="M16.95,38.182a5.667,5.667,0,0,0,2.1-6.916c-4.332-8-14.784.4-8.249,6.6C5.979,39,1.345,44.832,7.662,47.107c3.688,1.236,7.547.2,11.213-.422C25.094,46.138,20.429,39.714,16.95,38.182ZM12.768,29.97c4.912-1.216,6.187,5.962,1.063,6.1A3.109,3.109,0,0,1,12.768,29.97Zm6.909,14.9c-2.4.206-11.163.58-12.411-1.415,1.516-3.713,7.469-5.644,10.573-2.655C18.687,41.418,21.692,44.287,19.677,44.867Z" transform="translate(-4.592 -26.903)" fill="#e34690"/>
      <path id="Path_1994" data-name="Path 1994" d="M262.183,24.979c-.21-3.048-1.845-6.218-4.812-7.377-2.943-.588-6.121-.139-9.091-.606-11.4-1.561-15.792,5.155-10.964,15.32a5.3,5.3,0,0,1-1.2,2.47,1.34,1.34,0,0,0,1.9,1.827C245.769,30.717,263.272,40.7,262.183,24.979Zm-2.838,1.4c.454,8.919-13.938,3.5-20.225,7.158.668-1.731-.636-3.488-1.375-4.958-2.161-7.627,1.629-10.756,9.076-10.081C253.292,19.632,259.74,17.177,259.345,26.379Z" transform="translate(-212.973 -16.771)" fill="#e34690"/>
    </g>
    <g id="Group_1413" data-name="Group 1413" transform="translate(0 25.017)">
      <path id="Path_1995" data-name="Path 1995" d="M341.7,309.757c-2.275,1.835-10.109,1.1-12.977.088a.026.026,0,0,1-.009-.007c-1.726-1.641,5.091-5.275,6.534-5.246,9.015-.573,5.5-15.369-2.752-10.623-2.984,1.912-3.337,6.591-1.058,9.156-3.1,1.769-6.362,4.79-4.864,7.538,1.419,2.25,6.915,1.9,9.375,2,2.3-.206,7.669.155,7.8-3.071C343.65,306.886,340.452,307.884,341.7,309.757Zm-3.389-11.406c.081,3.966-6.624,4.731-6.685.394C331.514,294.023,338.161,293.331,338.314,298.351Z" transform="translate(-294.535 -291.229)" fill="#933ff4"/>
      <path id="Path_1996" data-name="Path 1996" d="M15.875,274.511c-1.224.023-2.495.083-3.682,0a1.465,1.465,0,0,0-1.326.658,19.4,19.4,0,0,0-5.364.089c-7.827,2.337-7.026,16.236.63,18.322,2.7.53,5.526.194,8.234.029,3.679-.394,7.388-.212,10.676,1.587a1.086,1.086,0,0,0,1.368-1.414c-.445-1.154-1.346-2.245-1.461-3.47,2.126-2.382,1.764-6.4,1.887-9.391.079-6.131-6.268-6.64-10.963-6.409ZM24.9,290.358c-.018.012.022-.021.023-.023S24.912,290.353,24.9,290.358Zm-17.893.678C.7,290.078.087,277.925,6.584,276.8a29.066,29.066,0,0,1,4.287.013c.617.882,2.246.586,3.251.5,5.393-.5,11.7-1.627,10.78,5.979.219,7.092-2.791,4.98-1.361,8.887C18.674,289.489,12.4,291.193,7.01,291.036Z" transform="translate(0 -274.468)" fill="#933ff4"/>
    </g>
  </g>
</svg>
