<svg id="inc-6" xmlns="http://www.w3.org/2000/svg" width="49.016" height="48.34" viewBox="0 0 49.016 48.34">
  <g id="Group_1421" data-name="Group 1421" transform="translate(0 0)">
    <g id="Group_1420" data-name="Group 1420" transform="translate(9.452 11.09)">
      <path id="Path_2001" data-name="Path 2001" d="M204.118,362.4c-.879.308-1.828.513-2.728.738a1.508,1.508,0,0,1-.713-2.93c.955-.146,1.884.421,2.8.632C204.324,360.971,205.119,361.82,204.118,362.4Z" transform="translate(-189.629 -336.647)" fill="#933ff4"/>
      <path id="Path_2002" data-name="Path 2002" d="M226.779,236.422a1.461,1.461,0,0,0-1.586-1.326c-.975.087-2.1.152-3.091.208-1.719.089-3.469.166-5.186.228-1.452.049-4.828.207-6.24.187-1.109.091-3.422-.655-3.246,1.194.405,1.518,2.206.509,3.294.6,2.062-.111,4.129-.007,6.195.049,2.78.092,5.516.247,8.3.445A1.465,1.465,0,0,0,226.779,236.422Z" transform="translate(-196.736 -223.696)" fill="#933ff4"/>
      <path id="Path_2003" data-name="Path 2003" d="M234.881,120.2a.86.86,0,0,0-1.071-.758c-1.659.092-3.3.122-4.949.086-3.723-.028-7.728-1.025-11.29.519a.843.843,0,0,0,.173,1.567,19.6,19.6,0,0,0,4.508.509c1.892-.006,3.76-.54,5.649-.6,1.624-.1,3.282-.235,4.9-.364C233.546,121.021,234.891,121.313,234.881,120.2Z" transform="translate(-205.486 -119.042)" fill="#933ff4"/>
      <path id="Path_2004" data-name="Path 2004" d="M101.406,362.3a18.049,18.049,0,0,1-1.93.844,1.554,1.554,0,0,1-1.149-2.888c.723-.3,1.4.1,2.067.326a8.73,8.73,0,0,1,.983.408.762.762,0,0,1,.029,1.31Z" transform="translate(-97.362 -336.61)" fill="#933ff4"/>
      <path id="Path_2005" data-name="Path 2005" d="M101.859,236.9a18.527,18.527,0,0,1-2,.754,1.551,1.551,0,0,1-1-2.937c.735-.264,1.387.173,2.048.42a8.938,8.938,0,0,1,.98.453A.759.759,0,0,1,101.859,236.9Z" transform="translate(-97.783 -223.285)" fill="#933ff4"/>
      <path id="Path_2006" data-name="Path 2006" d="M104.739,120.089a19.6,19.6,0,0,1-2.1.667,1.545,1.545,0,0,1-.84-2.973c.742-.221,1.374.242,2.028.5a9.433,9.433,0,0,1,1,.5A.753.753,0,0,1,104.739,120.089Z" transform="translate(-100.373 -117.725)" fill="#933ff4"/>
    </g>
    <path id="Path_2007" data-name="Path 2007" d="M329.306,329.494c-1.491-1.006-3.112-1.921-4.669-2.815a7.545,7.545,0,0,0,1.377-7.471c-2.8-7.459-14.581-5.928-14.862,2.308a7.221,7.221,0,0,0,7.424,7.682,7.306,7.306,0,0,0,5.131-1.615.658.658,0,0,0,.054.076c.484.639,1.275,1.455,1.823,2.05.721.719,1.331,1.538,2.071,2.218a1.471,1.471,0,0,0,1.652-2.434ZM315.381,325.3c-2.622-2.805-1.215-8.575,2.8-9.178,3.5-.569,6.934,2.156,6.477,5.821C324.3,326.8,318.658,328.388,315.381,325.3Z" transform="translate(-280.936 -284.207)" fill="#e34690"/>
    <path id="Path_2008" data-name="Path 2008" d="M48.8,12.538C49.192,2.169,36.257,3.826,29.13,3.484,23.188,3.855,2.07,2.227.862,9.6-.078,16.154.229,22.825.315,29.405.293,38.88-2.937,54,11.794,51.562c5.172-.088,10.634-.326,15.8-.195a.823.823,0,0,0,.108-1.639c-5.759-.607-11.616-.679-17.4-.708C1.123,50.647,2.967,39.179,3.134,33.3c.254-7.339-.7-14.711,0-22.025-.525-6.387,17.7-5.4,22.188-5.782,5.546-.143,11.148-.355,16.618.715,5.466.431,5.422,5.906,5.021,10.159-.175,4.407.009,9.1-.2,13.543a.822.822,0,0,0,1.642.039c.139-5.728.143-11.68.4-17.414Z" transform="translate(0 -3.484)" fill="#933ff4"/>
  </g>
</svg>
