<svg id="quote-icon" xmlns="http://www.w3.org/2000/svg" width="24" height="24" viewBox="0 0 24 24">
  <path id="Path_43" data-name="Path 43" d="M0,0H24V24H0Z" fill="none"/>
  <path id="Path_44" data-name="Path 44" d="M17.8,17.292s.077-.055.2-.149a7.334,7.334,0,0,0,3-5.789c0-4.286-4.03-7.764-9-7.764S3,7.068,3,11.354,7.032,19,12,19q.636,0,2.088-.084a9.356,9.356,0,0,0,4.716,1.493.483.483,0,0,0,.414-.828,9.086,9.086,0,0,1-1.416-2.29Z" fill="none" stroke="#fff" stroke-linecap="round" stroke-linejoin="round" stroke-width="1.5"/>
  <path id="Path_45" data-name="Path 45" d="M7.5,13.5a6.338,6.338,0,0,0,9,0" fill="none" stroke="#fff" stroke-linecap="round" stroke-linejoin="round" stroke-width="1.5"/>
</svg>
